<?xml version="1.0" encoding="UTF-8"?>
<svg version="1.1" xmlns="http://www.w3.org/2000/svg" width="736" height="736">
<path d="M0 0 C242.88 0 485.76 0 736 0 C736 242.88 736 485.76 736 736 C493.12 736 250.24 736 0 736 C0 493.12 0 250.24 0 0 Z " fill="#F7CCCF" transform="translate(0,0)"/>
<path d="M0 0 C1.45077676 -0.00131136 2.90155282 -0.00394384 4.35232514 -0.0077675 C8.30219593 -0.01441954 12.25181887 -0.00255351 16.20165813 0.01256669 C20.47481594 0.02559984 24.74796131 0.02113247 29.02113342 0.01885986 C36.41251207 0.0172917 43.80381088 0.0266529 51.19516945 0.04357338 C61.88163832 0.0680211 72.56806884 0.07577454 83.25456264 0.07953735 C100.59536402 0.0860928 117.93612291 0.10602931 135.27690125 0.13444519 C152.11544076 0.16200926 168.95396871 0.18323134 185.79252625 0.19596863 C186.8315723 0.1967568 187.87061835 0.19754497 188.94115064 0.19835702 C194.15407319 0.20227232 199.36699582 0.2060634 204.5799185 0.20979273 C247.78240897 0.2408604 290.9848531 0.29367145 334.18730164 0.36076355 C334.18730164 1.02076355 334.18730164 1.68076355 334.18730164 2.36076355 C334.81636414 2.3865448 335.44542664 2.41232605 336.09355164 2.43888855 C341.5587521 2.80104039 345.57918994 3.70074177 350.35917664 6.3724823 C352.85992254 7.72438126 355.47175168 8.54609856 358.18730164 9.36076355 C358.18730164 10.02076355 358.18730164 10.68076355 358.18730164 11.36076355 C358.76995789 11.63791199 359.35261414 11.91506042 359.95292664 12.2006073 C373.32682746 19.14474811 381.62046097 31.3952017 386.18730164 45.36076355 C386.8846097 47.68512375 387.55642315 50.01750061 388.18730164 52.36076355 C388.53011044 53.29696187 388.87291924 54.23316019 389.22611618 55.19772816 C390.88456947 61.05265243 390.46174986 67.18812152 390.44126892 73.21932983 C390.44357484 74.63987666 390.44675224 76.06042229 390.45072341 77.48096544 C390.45906254 81.37555817 390.45495009 85.27005273 390.44875097 89.16464579 C390.44422368 93.36861559 390.45121177 97.57256858 390.45671082 101.77653503 C390.46560464 110.00998855 390.46368251 118.2434056 390.45788553 126.47686055 C390.45336748 133.17138819 390.45275677 139.86590561 390.45493317 146.56043434 C390.45523963 147.51352086 390.4555461 148.46660739 390.45586185 149.44857532 C390.45650131 151.38486081 390.45714974 153.3211463 390.45780703 155.25743178 C390.4635107 173.41648907 390.45695267 191.57552616 390.4462063 209.73458014 C390.43727795 225.30309997 390.43881686 240.87158996 390.44804382 256.44010925 C390.45875821 274.52675264 390.46295381 292.61337831 390.4568193 310.70002443 C390.45618222 312.63068759 390.45555347 314.56135076 390.45493317 316.49201393 C390.45462462 317.44187851 390.45431606 318.3917431 390.45399816 319.37039145 C390.45227419 326.05138741 390.45518005 332.7323721 390.45989227 339.41336632 C390.4655144 347.5635643 390.463957 355.71372378 390.45333079 363.86391737 C390.44809087 368.01929595 390.44598845 372.17461044 390.45262909 376.32998848 C390.45862607 380.14040256 390.45525214 383.95069369 390.44467399 387.76109675 C390.4414117 389.77896399 390.44787748 391.79683988 390.45478845 393.81469792 C390.40903765 404.52846756 389.38350755 414.44245867 385.18730164 424.36076355 C384.52730164 424.36076355 383.86730164 424.36076355 383.18730164 424.36076355 C383.10737976 425.22830261 383.02745789 426.09584167 382.94511414 426.9896698 C380.70894666 436.93715707 369.72670207 447.43273904 361.44511414 453.04045105 C347.02818332 461.47111302 333.2798245 464.82773374 316.57597351 464.74171448 C315.14683425 464.74517955 313.71769768 464.74994978 312.28856659 464.75589621 C308.39801735 464.7683193 304.50769134 464.76227591 300.61714172 464.75293756 C296.40711521 464.74611142 292.19712539 464.75664585 287.98710632 464.76487732 C279.75412496 464.77817902 271.5212259 464.77535285 263.28824139 464.7666394 C256.59386205 464.75984919 249.8995057 464.7589519 243.2051239 464.76221085 C242.25036368 464.76267055 241.29560346 464.76313024 240.31191111 464.76360387 C238.37200355 464.7645631 236.432096 464.76553574 234.49218845 464.76652165 C216.32495736 464.77506511 198.15777176 464.76525782 179.99054813 464.74912055 C164.42069319 464.73571832 148.85090537 464.73804671 133.28105164 464.75187683 C115.17640326 464.76795111 97.07179471 464.77424123 78.9671402 464.76504004 C77.03458659 464.76408445 75.10203299 464.76314133 73.16947937 464.76221085 C72.21876132 464.76174802 71.26804326 464.76128519 70.28851557 464.76080834 C63.6064117 464.758224 56.92433321 464.76257745 50.24223328 464.76964951 C42.09292343 464.77808526 33.94370021 464.77574086 25.79440022 464.75980727 C21.64085437 464.75195242 17.48745268 464.74878512 13.33390808 464.75875473 C9.52424216 464.76776028 5.71485265 464.76267351 1.90521145 464.74682207 C-0.10964309 464.74193688 -2.12451715 464.75161804 -4.13935089 464.76199377 C-23.66987081 464.63707405 -40.45071441 458.4912078 -54.49629211 444.7318573 C-58.17728282 440.77994568 -61.03811686 437.51985616 -62.81269836 432.36076355 C-63.47269836 432.36076355 -64.13269836 432.36076355 -64.81269836 432.36076355 C-65.76259133 429.98603113 -66.71220708 427.61119368 -67.66035461 425.23576355 C-68.41275608 423.35858566 -69.1703428 421.48347547 -69.93379211 419.61076355 C-70.28570618 418.74451355 -70.63762024 417.87826355 -71.00019836 416.98576355 C-71.32375305 416.19427917 -71.64730774 415.4027948 -71.98066711 414.58732605 C-73.53338565 410.43216377 -73.93887142 406.88426043 -73.94412613 402.43601227 C-73.94796727 401.21626001 -73.95180842 399.99650775 -73.95576596 398.7397933 C-73.95498572 397.38424264 -73.95410694 396.02869202 -73.95314026 394.67314148 C-73.95572401 393.23456063 -73.95873719 391.7959805 -73.96214366 390.35740137 C-73.97021614 386.3990517 -73.97200337 382.44072015 -73.97274113 378.48236322 C-73.97459131 374.2149472 -73.9821386 369.94754059 -73.98887634 365.68013 C-74.0024632 356.3451494 -74.00848528 347.01017309 -74.012887 337.67518425 C-74.01564952 331.84506006 -74.01988696 326.01493752 -74.02439117 320.18481445 C-74.03658561 304.04020542 -74.04688373 287.89559773 -74.05026627 271.75098419 C-74.05048583 270.71747948 -74.0507054 269.68397477 -74.05093162 268.61915174 C-74.0511499 267.58317786 -74.05136817 266.54720397 -74.05159307 265.47983694 C-74.05203653 263.3805755 -74.05248309 261.28131405 -74.05293274 259.18205261 C-74.05315417 258.14074717 -74.0533756 257.09944173 -74.05360374 256.02658159 C-74.05754948 239.16375515 -74.0749959 222.30097199 -74.09829226 205.43816227 C-74.12202202 188.12166594 -74.1344689 170.8051913 -74.13563418 153.48867846 C-74.13655017 143.76770707 -74.142283 134.04679203 -74.1604538 124.32583618 C-74.17587688 116.04563687 -74.18096232 107.76551131 -74.17271569 99.48530036 C-74.16881665 95.26307479 -74.16970211 91.04099762 -74.18377304 86.81879044 C-74.19655719 82.9471509 -74.19527514 79.0757706 -74.18318233 75.20413119 C-74.18123308 73.80969674 -74.18426778 72.41524364 -74.19302669 71.02083534 C-74.25760212 60.03773587 -73.1281815 49.89020491 -67.76582336 40.1459198 C-66.64732143 38.14790243 -66.64732143 38.14790243 -65.56269836 34.98576355 C-61.73911548 25.98909795 -53.5219982 18.11651632 -45.81269836 12.36076355 C-43.51582336 11.6146698 -43.51582336 11.6146698 -41.81269836 11.36076355 C-41.81269836 10.70076355 -41.81269836 10.04076355 -41.81269836 9.36076355 C-41.13722961 9.09521667 -40.46176086 8.8296698 -39.76582336 8.55607605 C-38.42777649 8.02627136 -38.42777649 8.02627136 -37.06269836 7.48576355 C-36.18097961 7.13771667 -35.29926086 6.7896698 -34.39082336 6.43107605 C-31.90830828 5.4507652 -31.90830828 5.4507652 -30.01557845 4.39402229 C-20.63722618 -0.00488462 -10.14374833 -0.06914935 0 0 Z " fill="#F6838C" transform="translate(209.8126983642578,135.6392364501953)"/>
<path d="M0 0 C21.45 0 42.9 0 65 0 C68.33333333 10 71.66666667 20 75 30 C75.70423843 31.91944915 76.42120494 33.83432336 77.15625 35.7421875 C77.53910156 36.74636719 77.92195313 37.75054687 78.31640625 38.78515625 C79.10285967 40.83824092 79.89190609 42.89033426 80.68359375 44.94140625 C82.89657416 50.7607251 84.73969279 56.54093125 86.30834961 62.56420898 C87.240907 65.84840421 88.63554217 68.87213967 90 72 C91.95416177 77.59177892 93.75982264 83.23375612 95.59570312 88.86523438 C97.57598559 94.88677238 99.64973556 100.81799959 102.05541992 106.68286133 C103.60520826 110.48462952 105.01955541 114.33503337 106.4375 118.1875 C106.71142578 118.92291016 106.98535156 119.65832031 107.26757812 120.41601562 C110.02536888 127.8942354 112.47506268 135.42518803 115 143 C115.33 95.81 115.66 48.62 116 0 C137.12 0 158.24 0 180 0 C180 107.91 180 215.82 180 327 C173.73912969 327 168.7116576 326.96530377 162.71875 326.0703125 C152.68376388 324.68716674 142.61206863 324.31078836 132.5 323.875 C130.5976299 323.78833683 128.69528582 323.70110059 126.79296875 323.61328125 C122.19558464 323.4022687 117.59792184 323.19893624 113 323 C112.72905518 322.1793103 112.72905518 322.1793103 112.45263672 321.34204102 C108.6585395 309.86507669 104.78741192 298.42335222 100.72509766 287.03857422 C100.0028479 285.00800673 99.2873404 282.97519597 98.57421875 280.94140625 C96.17145476 274.09267278 93.73455635 267.25867061 91.23706055 260.44384766 C87.21101552 249.45612051 83.35410038 238.41625545 79.58886719 227.33691406 C77.31181935 220.66961373 74.90667959 214.07574733 72.34370422 207.51316833 C70.95804555 203.89030841 69.6417786 200.24836038 68.34301758 196.59350586 C67.90161942 195.35281845 67.46022125 194.11213104 67.00544739 192.83384705 C66.67364975 191.89867752 66.34185211 190.963508 66 190 C65.99576806 190.67937087 65.99153612 191.35874174 65.98717594 192.05869961 C65.88400918 208.56589931 65.7753927 225.07305315 65.66066074 241.58017635 C65.60531029 249.56279452 65.55182536 257.54541716 65.50268555 265.52807617 C65.45986597 272.48326603 65.4135937 279.43842273 65.36312145 286.39356142 C65.33650249 290.07849979 65.31164906 293.7634315 65.29092598 297.44840813 C65.26776498 301.55541765 65.23689778 305.66233366 65.20532227 309.76928711 C65.1995668 310.99998932 65.19381134 312.23069153 65.18788147 313.49868774 C65.17809265 314.61073074 65.16830383 315.72277374 65.15821838 316.86851501 C65.15176583 317.84100661 65.14531328 318.81349821 65.1386652 319.81545925 C65 322 65 322 64 323 C61.10375439 323.29180162 58.22359878 323.52459041 55.3203125 323.71875 C54.43777802 323.78155151 53.55524353 323.84435303 52.64596558 323.90905762 C49.80592885 324.11036464 46.96550431 324.305412 44.125 324.5 C41.32672234 324.69532962 38.52854084 324.89196678 35.73040771 325.08935547 C33.9198081 325.21697053 32.10913895 325.34360306 30.29840088 325.46923828 C25.8340246 325.78244725 21.38237953 326.13936102 16.9296875 326.59375 C11.30390447 327.05736445 5.64485368 327 0 327 C0 219.09 0 111.18 0 0 Z " fill="#FEFEFE" transform="translate(278,204)"/>
<path d="M0 0 C0.66 0 1.32 0 2 0 C2 28.05 2 56.1 2 85 C2.33 74.11 2.66 63.22 3 52 C3.33 52 3.66 52 4 52 C4.04574605 86.60012157 4.08100323 121.20023626 4.10213066 155.80038153 C4.10463217 159.88230193 4.1072208 163.96422227 4.10986328 168.04614258 C4.1103879 168.85880286 4.11091252 169.67146315 4.11145304 170.50874951 C4.12016319 183.67904645 4.1359365 196.84932598 4.15430559 210.01961259 C4.17298771 223.52666421 4.18411314 237.0337067 4.18817699 250.54077071 C4.19092556 258.87993875 4.19961656 267.21905761 4.21583293 275.55821051 C4.22637899 281.27137221 4.22960604 286.98450835 4.22700275 292.69767908 C4.22571774 295.99724852 4.22881356 299.29671326 4.23841095 302.59627151 C4.24829615 306.16860571 4.24599241 309.74072589 4.24050903 313.31306458 C4.24633472 314.36266399 4.2521604 315.4122634 4.25816262 316.49366885 C4.25418052 317.4471256 4.25019842 318.40058234 4.24609566 319.38293171 C4.24723482 320.62063013 4.24723482 320.62063013 4.24839699 321.88333255 C4 324 4 324 2 327 C1.34 327 0.68 327 0 327 C0 219.09 0 111.18 0 0 Z " fill="#ED8691" transform="translate(458,204)"/>
<path d="M0 0 C21.12 0 42.24 0 64 0 C64 107.91 64 215.82 64 327 C57.61666704 327 52.18453592 326.91622754 46 326 C46 325.67 46 325.34 46 325 C47.07121094 325.01160156 48.14242187 325.02320313 49.24609375 325.03515625 C50.64322743 325.04453299 52.04036299 325.05363331 53.4375 325.0625 C54.14455078 325.07087891 54.85160156 325.07925781 55.58007812 325.08789062 C57.38693559 325.09653588 59.19387603 325.05220011 61 325 C62.69584648 323.30415352 62.132371 321.15510168 62.1386652 318.83254147 C62.14413964 317.70541365 62.14961409 316.57828583 62.15525442 315.41700262 C62.15623253 314.16313916 62.15721064 312.9092757 62.15821838 311.61741638 C62.16315636 310.29757454 62.16809434 308.97773271 62.17318195 307.61789566 C62.18681701 303.93744982 62.19419686 300.25701325 62.20060861 296.5765487 C62.20858909 292.6140096 62.2222949 288.65148998 62.23532104 284.68896484 C62.2571173 277.81797836 62.27525022 270.94698993 62.29092598 264.07598686 C62.31359602 254.14155359 62.34174276 244.20714184 62.37124526 234.27272678 C62.41895641 218.1565181 62.46221101 202.04030063 62.50268555 185.92407227 C62.54202258 170.2645601 62.58344448 154.60505575 62.62768555 138.94555664 C62.63040982 137.98101979 62.63313409 137.01648294 62.63594092 136.02271771 C62.6496201 131.18413323 62.66334043 126.34554887 62.67708123 121.50696456 C62.79110132 81.33799167 62.89708147 41.16900317 63 1 C42.21 1 21.42 1 0 1 C0 0.67 0 0.34 0 0 Z " fill="#FDDFE2" transform="translate(394,204)"/>
<path d="M0 0 C1.02417497 0.16246214 2.04834993 0.32492428 3.10356051 0.49230951 C6.5793647 0.9451929 9.84372982 1.12429713 13.34303188 1.12304783 C14.57964107 1.12503888 15.81625026 1.12702993 17.09033245 1.12908131 C18.44925482 1.12622884 19.80817701 1.12328325 21.167099 1.12025452 C22.62094551 1.12069086 24.07479193 1.12156693 25.52863795 1.12284368 C29.514785 1.12507621 33.50090512 1.12108435 37.48704875 1.11606562 C41.78894271 1.11174348 46.09083518 1.1132088 50.39273071 1.1139679 C57.84311724 1.11449201 65.293495 1.11135693 72.74387932 1.10573006 C83.51585838 1.09759986 94.2878332 1.09499828 105.059815 1.09374207 C122.53703076 1.09155394 140.01424185 1.08490033 157.49145508 1.07543945 C174.46801734 1.06625915 191.44457833 1.05918134 208.42114258 1.05493164 C209.46773896 1.05466892 210.51433534 1.05440619 211.59264677 1.05413551 C216.84316133 1.05283046 222.0936759 1.05156676 227.34419048 1.05032361 C270.89613022 1.03995844 314.44806487 1.02234662 358 1 C357.67 1.66 357.34 2.32 357 3 C311.95356957 3.068611 266.90714465 3.12150073 221.86067231 3.15319599 C216.54700736 3.15694828 211.23334252 3.16083123 205.91967773 3.16479492 C204.33284169 3.16597532 204.33284169 3.16597532 202.71394835 3.16717956 C185.56673091 3.1802467 168.41954354 3.20390772 151.27234396 3.23145839 C133.68820838 3.25947623 116.10408859 3.27616858 98.51993161 3.28226548 C87.66257182 3.28638946 76.80529699 3.29943193 65.94796333 3.3237494 C58.51076539 3.33956193 51.07361159 3.34441057 43.63639804 3.34050413 C39.34037777 3.33857557 35.04450632 3.34160854 30.74851227 3.35761642 C26.81982795 3.37214935 22.8913934 3.37299577 18.9626979 3.36269668 C17.53734612 3.36142265 16.11197915 3.36528416 14.68665757 3.37464955 C12.75703872 3.38659684 10.8273261 3.37844542 8.89769268 3.36914349 C7.82346387 3.37028265 6.74923505 3.37142181 5.64245385 3.37259549 C2.67962437 2.95482589 1.79000676 2.33668516 0 0 Z " fill="#FCC1C3" transform="translate(188,598)"/>
<path d="M0 0 C1.99114615 3.9822923 3.56894161 7.96310221 5.125 12.125 C5.40214844 12.85332031 5.67929687 13.58164062 5.96484375 14.33203125 C8 19.75577278 8 19.75577278 8 22 C7.01 22 6.02 22 5 22 C4.34 18.37 3.68 14.74 3 11 C2.34 11 1.68 11 1 11 C1 51.92 1 92.84 1 135 C0.67 135 0.34 135 0 135 C0 90.45 0 45.9 0 0 Z " fill="#DC8792" transform="translate(343,390)"/>
<path d="M0 0 C0 3 0 3 -1.27734375 4.48828125 C-1.84582031 4.98714844 -2.41429687 5.48601562 -3 6 C-3.57878906 6.52980469 -4.15757812 7.05960938 -4.75390625 7.60546875 C-5.35074219 8.12753906 -5.94757813 8.64960938 -6.5625 9.1875 C-7.16191406 9.71730469 -7.76132813 10.24710938 -8.37890625 10.79296875 C-10 12 -10 12 -12 12 C-12.0825 12.5775 -12.165 13.155 -12.25 13.75 C-13.20710491 16.62131472 -14.8743794 17.8743794 -17 20 C-17.350625 20.886875 -17.70125 21.77375 -18.0625 22.6875 C-18.371875 23.450625 -18.68125 24.21375 -19 25 C-19.99 25.33 -20.98 25.66 -22 26 C-20.79327313 15.67784399 -9.61872531 7.19291471 -2 1 C-1.34 0.67 -0.68 0.34 0 0 Z " fill="#EB9098" transform="translate(166,147)"/>
<path d="M0 0 C0.66 0 1.32 0 2 0 C2.36351562 1.12148438 2.36351562 1.12148438 2.734375 2.265625 C3.23710937 3.74289062 3.23710937 3.74289062 3.75 5.25 C4.07484375 6.22453125 4.3996875 7.1990625 4.734375 8.203125 C6.08057897 11.17806959 7.56904617 12.85504074 10 15 C10.66 14.67 11.32 14.34 12 14 C11.67 14.99 11.34 15.98 11 17 C10.77820215 18.89212737 10.59385985 20.78884472 10.4375 22.6875 C10.35371094 23.68136719 10.26992188 24.67523438 10.18359375 25.69921875 C10.12300781 26.45847656 10.06242187 27.21773438 10 28 C7.46247419 23.14922109 5.73676986 18.01295851 3.875 12.875 C3.50246094 11.86050781 3.12992187 10.84601563 2.74609375 9.80078125 C2.39417969 8.83269531 2.04226563 7.86460937 1.6796875 6.8671875 C1.35726074 5.98144043 1.03483398 5.09569336 0.70263672 4.18310547 C0 2 0 2 0 0 Z " fill="#EA8C94" transform="translate(379,308)"/>
<path d="M0 0 C0.33 0 0.66 0 1 0 C1 13.86 1 27.72 1 42 C-2.31012244 38.68987756 -2.50351065 37.46840411 -3 33 C-2.34 33 -1.68 33 -1 33 C-0.67 22.11 -0.34 11.22 0 0 Z " fill="#ED8191" transform="translate(392,303)"/>
<path d="M0 0 C2.0973507 3.88926198 3.58091465 7.9951258 5.125 12.125 C5.40214844 12.85332031 5.67929687 13.58164062 5.96484375 14.33203125 C8 19.75577278 8 19.75577278 8 22 C7.01 22 6.02 22 5 22 C4.34 18.37 3.68 14.74 3 11 C2.34 11 1.68 11 1 11 C-0.17571451 7.32589215 -0.07366746 3.83070817 0 0 Z " fill="#E0979F" transform="translate(343,390)"/>
<path d="M0 0 C0.99 0 1.98 0 3 0 C1.6017971 4.02073891 -0.29179755 6.98689637 -2.9375 10.3125 C-3.62714844 11.19550781 -4.31679688 12.07851563 -5.02734375 12.98828125 C-5.67832031 13.65214844 -6.32929687 14.31601562 -7 15 C-7.99 15 -8.98 15 -10 15 C-9.34 14.01 -8.68 13.02 -8 12 C-7.34 12 -6.68 12 -6 12 C-6 11.01 -6 10.02 -6 9 C-5.34 9 -4.68 9 -4 9 C-2.47700477 6.06279492 -1.19899698 3.0831351 0 0 Z " fill="#EA8E96" transform="translate(589,564)"/>
<path d="M0 0 C-14.59681093 1.33257403 -14.59681093 1.33257403 -22 0 C-22 -0.33 -22 -0.66 -22 -1 C-4.24203822 -2.82802548 -4.24203822 -2.82802548 0 0 Z " fill="#ED909B" transform="translate(312,531)"/>
<path d="M0 0 C1.31225809 3.93677426 0.3393954 5.7794262 -0.9375 9.6875 C-1.31777344 10.86699219 -1.69804688 12.04648437 -2.08984375 13.26171875 C-2.39019531 14.16535156 -2.69054687 15.06898438 -3 16 C-3.66 16 -4.32 16 -5 16 C-5.33 16.99 -5.66 17.98 -6 19 C-4.78345753 12.30901644 -2.77614561 6.18323341 0 0 Z " fill="#EB8F98" transform="translate(598,544)"/>
<path d="M0 0 C0.66 0 1.32 0 2 0 C5.30199356 5.9435884 6.95518663 11.29119838 8 18 C7.34 18 6.68 18 6 18 C4.99600476 15.37646482 3.99665555 12.75132205 3 10.125 C2.57074219 9.00544922 2.57074219 9.00544922 2.1328125 7.86328125 C0 2.2265625 0 2.2265625 0 0 Z " fill="#E8909A" transform="translate(368,278)"/>
<path d="M0 0 C1.32 0.33 2.64 0.66 4 1 C4.33 5.29 4.66 9.58 5 14 C3.23662322 11.35493484 2.3439149 9.40786033 1.375 6.4375 C0.98441406 5.25994141 0.98441406 5.25994141 0.5859375 4.05859375 C0 2 0 2 0 0 Z " fill="#E78C98" transform="translate(353,234)"/>
<path d="M0 0 C4.62 0 9.24 0 14 0 C14.66 1.32 15.32 2.64 16 4 C15.01 4.33 14.02 4.66 13 5 C12.01 4.34 11.02 3.68 10 3 C8.28555111 2.56261304 6.55332216 2.19151312 4.8125 1.875 C3.91144531 1.70742187 3.01039063 1.53984375 2.08203125 1.3671875 C1.39496094 1.24601563 0.70789063 1.12484375 0 1 C0 0.67 0 0.34 0 0 Z " fill="#FBB9BC" transform="translate(544,137)"/>
<path d="M0 0 C2.49936244 2.49936244 3.03723753 4.64808008 4.125 8 C4.47820312 9.0725 4.83140625 10.145 5.1953125 11.25 C6 14 6 14 6 16 C5.34 16 4.68 16 4 16 C3.32320342 14.274773 2.65898 12.54461061 2 10.8125 C1.443125 9.36810547 1.443125 9.36810547 0.875 7.89453125 C0.02363228 5.07817642 -0.17072647 2.91835561 0 0 Z " fill="#EA929B" transform="translate(352,416)"/>
<path d="M0 0 C-5.78527805 3.10429554 -11.33958217 5.40366169 -18 5 C-17 3 -17 3 -14.56640625 2.18359375 C-13.07947266 1.81427734 -13.07947266 1.81427734 -11.5625 1.4375 C-2.66839991 -0.80051997 -2.66839991 -0.80051997 0 0 Z " fill="#EA8991" transform="translate(560,594)"/>
<path d="M0 0 C2.57146057 2.57146057 2.80117997 4.6050417 3.625 8.125 C3.88539063 9.22070312 4.14578125 10.31640625 4.4140625 11.4453125 C4.70410156 12.70988281 4.70410156 12.70988281 5 14 C4.34 14 3.68 14 3 14 C2.67 12.02 2.34 10.04 2 8 C1.34 8 0.68 8 0 8 C0 5.36 0 2.72 0 0 Z " fill="#E88E9B" transform="translate(362,444)"/>
<path d="M0 0 C1.14926266 0.95421808 2.29430541 1.91352045 3.4375 2.875 C4.07558594 3.40867188 4.71367188 3.94234375 5.37109375 4.4921875 C7 6 7 6 8 8 C5.6875 8.25 5.6875 8.25 3 8 C1.1875 6.25 1.1875 6.25 0 4 C0 2.68 0 1.36 0 0 Z " fill="#EE8F99" transform="translate(576,152)"/>
<path d="M0 0 C-2.125 2.5625 -2.125 2.5625 -5 5 C-8.3125 4.8125 -8.3125 4.8125 -11 4 C-9.71264403 1.42528807 -8.71510189 1.29583343 -6.0625 0.3125 C-5.35222656 0.04050781 -4.64195312 -0.23148438 -3.91015625 -0.51171875 C-2 -1 -2 -1 0 0 Z " fill="#FABABF" transform="translate(565,593)"/>
<path d="M0 0 C0.66 0.33 1.32 0.66 2 1 C1.67 1.99 1.34 2.98 1 4 C0.34 4 -0.32 4 -1 4 C-1 4.66 -1 5.32 -1 6 C-3.64 6.33 -6.28 6.66 -9 7 C-7.79492039 4.58984078 -6.83672718 4.19684272 -4.5 2.9375 C-2.0882696 1.6858579 -2.0882696 1.6858579 0 0 Z " fill="#FBC0C5" transform="translate(574,585)"/>
<path d="M0 0 C2.46301423 2.46301423 2.76766521 4.27360036 3.625 7.625 C3.88539063 8.62789063 4.14578125 9.63078125 4.4140625 10.6640625 C4.60742188 11.43492187 4.80078125 12.20578125 5 13 C4.34 13 3.68 13 3 13 C2.67 11.35 2.34 9.7 2 8 C1.01 7.67 0.02 7.34 -1 7 C-0.67 4.69 -0.34 2.38 0 0 Z " fill="#ED949F" transform="translate(372,472)"/>
<path d="M0 0 C2.46301423 2.46301423 2.76766521 4.27360036 3.625 7.625 C3.88539063 8.62789063 4.14578125 9.63078125 4.4140625 10.6640625 C4.60742188 11.43492187 4.80078125 12.20578125 5 13 C4.34 13.66 3.68 14.32 3 15 C2.67 12.36 2.34 9.72 2 7 C1.01 6.67 0.02 6.34 -1 6 C-0.67 4.02 -0.34 2.04 0 0 Z " fill="#FDE6E7" transform="translate(369,282)"/>
<path d="M0 0 C0.66 0.33 1.32 0.66 2 1 C1.01 4.96 0.02 8.92 -1 13 C-3 10 -3 10 -2.75 6.5 C-2 3 -2 3 0 0 Z " fill="#FEBFC4" transform="translate(138,181)"/>
<path d="M0 0 C0.99 0 1.98 0 3 0 C3.45375 0.969375 3.9075 1.93875 4.375 2.9375 C5.65786221 6.07079582 5.65786221 6.07079582 8 7 C7.67 8.32 7.34 9.64 7 11 C3 6.25 3 6.25 3 4 C2.34 4 1.68 4 1 4 C0.67 2.68 0.34 1.36 0 0 Z " fill="#EA8F97" transform="translate(144,564)"/>
<path d="M0 0 C3.3 0.99 6.6 1.98 10 3 C10 3.66 10 4.32 10 5 C10.66 5.33 11.32 5.66 12 6 C7.43545749 5.45660208 4.0271824 4.20536179 0 2 C0 1.34 0 0.68 0 0 Z " fill="#EB8F97" transform="translate(176,592)"/>
<path d="M0 0 C0.99 0.33 1.98 0.66 3 1 C1.90081184 1.98475214 0.7954398 2.96260473 -0.3125 3.9375 C-0.92738281 4.48277344 -1.54226563 5.02804687 -2.17578125 5.58984375 C-4 7 -4 7 -7 8 C-6.67 6.68 -6.34 5.36 -6 4 C-4.35 3.67 -2.7 3.34 -1 3 C-0.67 2.01 -0.34 1.02 0 0 Z " fill="#EA8D96" transform="translate(577,580)"/>
<path d="M0 0 C0.66 0.33 1.32 0.66 2 1 C0.73058503 4.91402949 -0.51167694 6.79072873 -4 9 C-4.66 8.67 -5.32 8.34 -6 8 C-4.02 5.36 -2.04 2.72 0 0 Z " fill="#FCC3C8" transform="translate(589,569)"/>
<path d="M0 0 C1.12377697 3.30435084 0.89554742 5.0506862 -0.4375 8.25 C-0.72496094 8.95640625 -1.01242188 9.6628125 -1.30859375 10.390625 C-1.53675781 10.92171875 -1.76492187 11.4528125 -2 12 C-2.66 12 -3.32 12 -4 12 C-3.33501617 7.61110675 -1.81242323 4.0188515 0 0 Z " fill="#EA8892" transform="translate(143,174)"/>
<path d="M0 0 C0.33 0.66 0.66 1.32 1 2 C1.99 2.33 2.98 2.66 4 3 C4 5.31 4 7.62 4 10 C2 9 2 9 0.875 6.6875 C0 4 0 4 0 0 Z " fill="#EF9199" transform="translate(138,548)"/>
<path d="M0 0 C0.99 0.33 1.98 0.66 3 1 C3 1.66 3 2.32 3 3 C3.598125 3.268125 4.19625 3.53625 4.8125 3.8125 C6.97224808 4.98493467 8.35790256 6.19369282 10 8 C8.68 8 7.36 8 6 8 C5.34 7.01 4.68 6.02 4 5 C1.94996045 3.80767387 1.94996045 3.80767387 0 3 C0 2.01 0 1.02 0 0 Z " fill="#EA8F97" transform="translate(565,144)"/>
<path d="M0 0 C1.60517097 0.08733576 3.20921662 0.19552224 4.8125 0.3125 C6.15248047 0.39951172 6.15248047 0.39951172 7.51953125 0.48828125 C10.30604 1.06313581 11.24135754 1.8206856 13 4 C12.319375 3.855625 11.63875 3.71125 10.9375 3.5625 C8.72377032 3.13859432 6.48876645 2.82368942 4.25 2.5625 C2.64125 2.2840625 2.64125 2.2840625 1 2 C0.67 1.34 0.34 0.68 0 0 Z " fill="#EC8A93" transform="translate(544,138)"/>
<path d="M0 0 C5.75 1.75 5.75 1.75 8 4 C5.6875 4.6875 5.6875 4.6875 3 5 C1.1875 3.6875 1.1875 3.6875 0 2 C0 1.34 0 0.68 0 0 Z " fill="#FAC0C1" transform="translate(176,594)"/>
<path d="M0 0 C2.475 0.99 2.475 0.99 5 2 C4.67 4.31 4.34 6.62 4 9 C1.3144406 6.3144406 0.93950026 3.62378672 0 0 Z " fill="#FDF0F0" transform="translate(362,443)"/>
<path d="M0 0 C0.66 0.33 1.32 0.66 2 1 C1.67 3.31 1.34 5.62 1 8 C0.34 7.67 -0.32 7.34 -1 7 C-1.625 3.9375 -1.625 3.9375 -2 1 C-1.34 0.67 -0.68 0.34 0 0 Z " fill="#ED939F" transform="translate(377,296)"/>
<path d="M0 0 C0.66 0 1.32 0 2 0 C2.66 2.97 3.32 5.94 4 9 C3.01 9.495 3.01 9.495 2 10 C0.68373308 6.38026598 0 3.90432869 0 0 Z " fill="#EC8998" transform="translate(343,204)"/>
<path d="M0 0 C2.0625 1.75 2.0625 1.75 4 4 C3.75 6.25 3.75 6.25 3 8 C1.5 6.8125 1.5 6.8125 0 5 C-0.1875 2.3125 -0.1875 2.3125 0 0 Z " fill="#ED9098" transform="translate(588,166)"/>
<path d="M0 0 C2.29633824 3.44450737 2.54016485 5.93812283 3 10 C2.34 10 1.68 10 1 10 C-0.60725635 6.78548731 -0.05748185 3.56387464 0 0 Z " fill="#FDE5E9" transform="translate(365,270)"/>
<path d="M0 0 C1.65 0 3.3 0 5 0 C5 0.66 5 1.32 5 2 C5.66 2.33 6.32 2.66 7 3 C6.67 3.66 6.34 4.32 6 5 C4 4 2 3 0 2 C0 1.34 0 0.68 0 0 Z " fill="#F9C1C6" transform="translate(568,145)"/>
<path d="M0 0 C2.31 0 4.62 0 7 0 C6.67 0.99 6.34 1.98 6 3 C3.03 2.505 3.03 2.505 0 2 C0 1.34 0 0.68 0 0 Z " fill="#F2FFF9" transform="translate(393,522)"/>
<path d="M0 0 C1.32 0.33 2.64 0.66 4 1 C4.33 2.32 4.66 3.64 5 5 C4.01 5.33 3.02 5.66 2 6 C1.34 4.02 0.68 2.04 0 0 Z " fill="#FABEC1" transform="translate(594,176)"/>
<path d="M0 0 C1.65 0 3.3 0 5 0 C5.33 0.99 5.66 1.98 6 3 C5.34 3.66 4.68 4.32 4 5 C2.68 3.35 1.36 1.7 0 0 Z " fill="#EE8F99" transform="translate(152,576)"/>
<path d="M0 0 C0.66 0.33 1.32 0.66 2 1 C1.625 2.9375 1.625 2.9375 1 5 C0.01 5.495 0.01 5.495 -1 6 C-1.66 5.67 -2.32 5.34 -3 5 C-2.67 4.01 -2.34 3.02 -2 2 C-1.34 2 -0.68 2 0 2 C0 1.34 0 0.68 0 0 Z " fill="#E78F92" transform="translate(389,522)"/>
<path d="M0 0 C0.66 0 1.32 0 2 0 C2 1.32 2 2.64 2 4 C2.66 4 3.32 4 4 4 C4 5.65 4 7.3 4 9 C1.47740939 7.02579865 1.0070192 6.03254358 0.3125 2.8125 C0.209375 1.884375 0.10625 0.95625 0 0 Z " fill="#E596A3" transform="translate(389,336)"/>
<path d="M0 0 C-1.125 1.5 -1.125 1.5 -3 3 C-6.1875 3.1875 -6.1875 3.1875 -9 3 C-7.14340032 -0.71319936 -3.69365381 -0.09982848 0 0 Z " fill="#EA8E96" transform="translate(187,139)"/>
</svg>
